<svg width="264" height="264" viewBox="0 0 264 264" fill="none" xmlns="http://www.w3.org/2000/svg">
<g clip-path="url(#clip0_1353_2208)">
<mask id="mask0_1353_2208" style="mask-type:luminance" maskUnits="userSpaceOnUse" x="0" y="0" width="264" height="264">
<path d="M263.4 0H0V263.4H263.4V0Z" fill="white"/>
</mask>
<g mask="url(#mask0_1353_2208)">
<path d="M131.795 48.2021C85.7785 48.2021 48.3389 85.6418 48.3389 131.658C48.3389 177.674 85.7785 215.113 131.795 215.113C177.811 215.113 215.25 177.674 215.25 131.658C215.25 85.6418 177.811 48.2021 131.795 48.2021Z" fill="#FDBE6E"/>
<path d="M131.7 185.217C161.281 185.217 185.26 161.238 185.26 131.658C185.26 102.077 161.281 78.0979 131.7 78.0979C102.12 78.0979 78.1406 102.077 78.1406 131.658C78.1406 161.238 102.12 185.217 131.7 185.217Z" fill="#F15926"/>
<path d="M131.794 42.7761C143.294 42.7761 154.278 44.9939 164.371 48.987V46.3847C164.371 37.7662 160.215 29.5903 153.256 24.5067L144.221 17.9058C139.48 14.4448 134.175 4.88335 132.663 2.03863C132.479 1.69621 132.126 1.48022 131.741 1.48022C131.351 1.48022 130.998 1.69621 130.819 2.04917C129.334 4.89389 124.118 14.4448 119.372 17.9058L110.337 24.5067C103.378 29.5903 99.2217 37.7715 99.2217 46.3847V48.987C109.315 44.9939 120.299 42.7761 131.799 42.7761H131.794Z" fill="#F15926"/>
<path d="M224.242 39.6731C223.968 39.3991 223.563 39.299 223.194 39.4149C220.112 40.3579 209.608 43.3501 203.802 42.4493L192.75 40.7161C184.232 39.3833 175.508 42.2228 169.413 48.3126L167.458 50.267C187.993 59.2964 204.487 75.8695 213.406 96.4621L215.461 94.4128C221.561 88.323 224.411 79.6045 223.089 71.0861L221.371 60.0286C220.47 54.2233 223.542 43.7821 224.506 40.7214C224.622 40.3474 224.527 39.947 224.253 39.6731H224.242Z" fill="#F15926"/>
<path d="M261.402 130.788C258.552 129.276 248.996 123.966 245.535 119.23L238.934 110.196C233.851 103.237 225.675 99.0803 217.056 99.0803H214.465C218.458 109.174 220.676 120.158 220.676 131.658C220.676 143.158 218.458 154.141 214.465 164.235H217.056C225.675 164.235 233.856 160.078 238.934 153.119L245.535 144.085C249.002 139.344 258.553 134.123 261.397 132.637C261.745 132.453 261.961 132.1 261.961 131.71C261.961 131.32 261.745 130.973 261.402 130.788Z" fill="#F15926"/>
<path d="M224.489 222.678C223.525 219.618 220.454 209.182 221.354 203.371L223.072 192.319C224.394 183.8 221.544 175.082 215.444 168.992L213.363 166.917C204.428 187.504 187.929 204.066 167.384 213.08L169.401 215.092C175.502 221.182 184.236 224.032 192.739 222.689L203.791 220.956C209.575 220.05 220.101 223.047 223.182 223.99C223.288 224.022 223.393 224.037 223.499 224.037C223.772 224.037 224.036 223.932 224.231 223.732C224.505 223.458 224.6 223.052 224.484 222.678H224.489Z" fill="#F15926"/>
<path d="M131.794 220.539C120.294 220.539 109.31 218.322 99.2163 214.328V217.02C99.2163 225.639 103.373 233.82 110.332 238.898L119.366 245.499C124.108 248.965 129.328 258.516 130.814 261.361C130.998 261.709 131.351 261.925 131.736 261.925C132.12 261.925 132.473 261.709 132.658 261.366C134.169 258.516 139.48 248.96 144.216 245.499L153.25 238.898C160.209 233.815 164.366 225.639 164.366 217.02V214.328C154.272 218.322 143.288 220.539 131.788 220.539H131.794Z" fill="#F15926"/>
<path d="M50.1937 166.843L48.0443 168.987C41.944 175.077 39.094 183.795 40.4163 192.314L42.1336 203.366C43.0345 209.176 39.9632 219.612 38.9992 222.673C38.8833 223.047 38.9781 223.453 39.252 223.727C39.4522 223.927 39.7156 224.032 39.9896 224.032C40.0949 224.032 40.2003 224.016 40.3004 223.985C43.3874 223.042 53.9023 220.05 59.6919 220.95L70.7441 222.684C79.2625 224.022 87.9863 221.177 94.0814 215.087L96.1254 213.043C75.5907 204.009 59.0966 187.441 50.1831 166.843H50.1937Z" fill="#F15926"/>
<path d="M42.9192 131.658C42.9192 120.158 45.137 109.174 49.1302 99.0803H46.3434C37.725 99.0803 29.549 103.237 24.4654 110.196L17.8646 119.23C14.4035 123.972 4.84209 129.276 1.99737 130.788C1.64968 130.973 1.43896 131.326 1.43896 131.71C1.43896 132.095 1.65495 132.453 2.00791 132.637C4.85263 134.123 14.4035 139.338 17.8646 144.085L24.4654 153.119C29.549 160.078 37.7302 164.235 46.3434 164.235H49.1302C45.137 154.141 42.9192 143.158 42.9192 131.658Z" fill="#F15926"/>
<path d="M40.4217 71.0861C39.0995 79.6045 41.9495 88.323 48.0498 94.4128L50.1675 96.5306C59.0705 75.9274 75.5488 59.3438 96.0782 50.2986L94.0921 48.3126C87.9918 42.2228 79.268 39.378 70.7549 40.7161L59.7026 42.4493C53.892 43.3501 43.3929 40.3579 40.3111 39.4149C39.9318 39.299 39.5367 39.3991 39.2628 39.6731C38.9888 39.947 38.894 40.3526 39.0099 40.7267C39.974 43.7874 43.0452 54.2285 42.1444 60.0339L40.427 71.0914L40.4217 71.0861Z" fill="#F15926"/>
<path d="M131.705 174.887C131.321 174.887 131.01 174.576 131.005 174.192C130.836 163.129 126.59 153.441 118.282 145.128C109.969 136.815 100.282 132.574 89.2188 132.406C88.8343 132.401 88.5234 132.09 88.5234 131.705C88.5234 131.321 88.8343 131.01 89.2188 131.005C100.282 130.836 109.969 126.59 118.282 118.261C126.595 109.927 130.836 100.239 131.005 89.2188C131.01 88.8343 131.321 88.5234 131.705 88.5234C132.09 88.5234 132.401 88.8343 132.406 89.2188C132.574 100.282 136.82 109.969 145.128 118.282C153.441 126.595 163.129 130.836 174.192 131.005C174.576 131.01 174.887 131.321 174.887 131.705C174.887 132.09 174.576 132.401 174.192 132.406C163.129 132.574 153.441 136.82 145.128 145.128C136.815 153.441 132.574 163.129 132.406 174.192C132.401 174.576 132.09 174.887 131.705 174.887Z" fill="#FDBE6E"/>
</g>
</g>
<defs>
<clipPath id="clip0_1353_2208">
<rect width="263.4" height="263.4" fill="white"/>
</clipPath>
</defs>
</svg>
